<?xml version="1.0" encoding="UTF-8"?>
<svg xmlns="http://www.w3.org/2000/svg" xmlns:xlink="http://www.w3.org/1999/xlink" width="30px" height="px" viewBox="0 0 30 20" version="1.1">
<g id="surface1">
<path style=" stroke:none;fill-rule:nonzero;fill:rgb(100%,100%,100%);fill-opacity:1;" d="M 3 0 L 27 0 C 28.65625 0 30 1.34375 30 3 L 30 17 C 30 18.65625 28.65625 20 27 20 L 3 20 C 1.34375 20 0 18.65625 0 17 L 0 3 C 0 1.34375 1.34375 0 3 0 Z M 3 0 "/>
<path style=" stroke:none;fill-rule:nonzero;fill:rgb(0%,0%,0%);fill-opacity:1;" d="M 2 10.359375 C 1.996094 9.753906 2.109375 9.152344 2.328125 8.589844 C 2.777344 7.503906 3.636719 6.636719 4.71875 6.179688 C 5.289062 5.964844 5.890625 5.855469 6.5 5.859375 C 6.988281 5.855469 7.476562 5.929688 7.941406 6.078125 C 8.414062 6.230469 8.863281 6.449219 9.269531 6.730469 C 9.257812 7 9.113281 7.246094 8.886719 7.390625 C 8.660156 7.535156 8.378906 7.5625 8.128906 7.460938 L 8 7.378906 C 7.554688 7.210938 7.085938 7.125 6.609375 7.128906 C 5.746094 7.078125 4.898438 7.394531 4.28125 8 C 3.679688 8.628906 3.363281 9.472656 3.398438 10.339844 C 3.367188 11.1875 3.675781 12.011719 4.261719 12.628906 C 4.816406 13.226562 5.605469 13.554688 6.421875 13.53125 C 6.914062 13.53125 7.402344 13.441406 7.859375 13.261719 L 7.96875 13.261719 C 8.238281 13.144531 8.546875 13.175781 8.789062 13.335938 C 9.035156 13.496094 9.179688 13.769531 9.179688 14.058594 C 8.820312 14.320312 8.421875 14.523438 8 14.660156 C 7.535156 14.792969 7.054688 14.855469 6.570312 14.851562 C 5.949219 14.859375 5.332031 14.75 4.75 14.53125 C 4.203125 14.320312 3.703125 13.996094 3.289062 13.578125 C 2.859375 13.171875 2.519531 12.679688 2.289062 12.128906 C 2.082031 11.5625 1.984375 10.964844 2 10.359375 Z M 2 10.359375 "/>
<path style=" stroke:none;fill-rule:nonzero;fill:rgb(0%,0%,0%);fill-opacity:1;" d="M 9.558594 10.359375 C 9.558594 9.765625 9.675781 9.179688 9.898438 8.628906 C 10.132812 8.082031 10.472656 7.585938 10.898438 7.171875 C 11.324219 6.746094 11.828125 6.40625 12.378906 6.171875 C 13.511719 5.730469 14.769531 5.730469 15.898438 6.171875 C 16.453125 6.40625 16.953125 6.746094 17.378906 7.171875 C 17.808594 7.589844 18.148438 8.089844 18.378906 8.640625 C 19.082031 10.324219 18.6875 12.265625 17.378906 13.539062 C 16.953125 13.964844 16.445312 14.304688 15.890625 14.539062 C 15.335938 14.769531 14.738281 14.882812 14.140625 14.878906 C 12.929688 14.886719 11.765625 14.414062 10.898438 13.570312 C 10.472656 13.160156 10.132812 12.664062 9.898438 12.121094 C 9.671875 11.5625 9.554688 10.964844 9.558594 10.359375 Z M 11.011719 10.359375 C 11.007812 10.78125 11.089844 11.199219 11.25 11.589844 C 11.40625 11.964844 11.636719 12.304688 11.929688 12.589844 C 12.210938 12.890625 12.550781 13.128906 12.929688 13.289062 C 13.308594 13.449219 13.71875 13.53125 14.128906 13.53125 C 14.539062 13.53125 14.945312 13.449219 15.320312 13.289062 C 15.695312 13.125 16.039062 12.886719 16.320312 12.589844 C 16.605469 12.300781 16.835938 11.960938 17 11.589844 C 17.160156 11.203125 17.242188 10.789062 17.238281 10.371094 C 17.242188 9.941406 17.164062 9.515625 17 9.121094 C 16.835938 8.746094 16.605469 8.410156 16.320312 8.121094 C 16.035156 7.824219 15.695312 7.585938 15.320312 7.421875 C 14.9375 7.261719 14.523438 7.179688 14.109375 7.179688 C 13.699219 7.179688 13.289062 7.261719 12.910156 7.421875 C 12.53125 7.582031 12.191406 7.820312 11.910156 8.121094 C 11.617188 8.402344 11.386719 8.742188 11.230469 9.121094 C 11.074219 9.515625 10.996094 9.9375 11 10.359375 Z M 11.011719 10.359375 "/>
<path style=" stroke:none;fill-rule:nonzero;fill:rgb(0%,0%,0%);fill-opacity:1;" d="M 20.308594 14.628906 L 20.308594 6.058594 L 22.191406 6.058594 C 23.054688 6.035156 23.917969 6.097656 24.769531 6.25 C 25.242188 6.363281 25.6875 6.574219 26.070312 6.871094 C 26.566406 7.246094 26.957031 7.746094 27.199219 8.320312 C 27.460938 8.953125 27.589844 9.632812 27.578125 10.320312 C 27.59375 11.007812 27.464844 11.6875 27.199219 12.320312 C 26.953125 12.894531 26.5625 13.398438 26.070312 13.78125 C 25.691406 14.066406 25.257812 14.273438 24.800781 14.390625 C 24.066406 14.535156 23.316406 14.601562 22.570312 14.578125 L 20.308594 14.578125 Z M 21.710938 13.378906 L 22.878906 13.378906 C 23.363281 13.398438 23.847656 13.355469 24.320312 13.25 C 24.628906 13.171875 24.917969 13.023438 25.160156 12.820312 C 25.484375 12.554688 25.734375 12.210938 25.890625 11.820312 C 26.058594 11.363281 26.140625 10.878906 26.128906 10.390625 C 26.140625 9.898438 26.058594 9.410156 25.890625 8.949219 C 25.734375 8.558594 25.484375 8.214844 25.160156 7.949219 C 24.90625 7.742188 24.609375 7.59375 24.289062 7.519531 C 23.769531 7.414062 23.238281 7.371094 22.710938 7.390625 L 21.710938 7.390625 Z M 21.710938 13.378906 "/>
</g>
</svg>
