<?xml version="1.0" encoding="UTF-8"?>
<svg xmlns="http://www.w3.org/2000/svg" xmlns:xlink="http://www.w3.org/1999/xlink" width="30px" height="px" viewBox="0 0 30 20" version="1.1">
<defs>
<linearGradient id="linear0" gradientUnits="userSpaceOnUse" x1="-941.2453" y1="152.3172" x2="-939.048" y2="152.3172" gradientTransform="matrix(3.233907,0,0,-2.002933,3063.304947,316.179587)">
<stop offset="0" style="stop-color:rgb(0.392157%,47.843137%,25.098039%);stop-opacity:1;"/>
<stop offset="0.2285" style="stop-color:rgb(1.568627%,52.54902%,26.27451%);stop-opacity:1;"/>
<stop offset="0.7433" style="stop-color:rgb(24.705882%,64.705882%,28.235294%);stop-opacity:1;"/>
<stop offset="1" style="stop-color:rgb(36.078431%,70.588235%,27.843137%);stop-opacity:1;"/>
</linearGradient>
<linearGradient id="linear1" gradientUnits="userSpaceOnUse" x1="-966.421" y1="150.6445" x2="-965.6631" y2="150.6445" gradientTransform="matrix(9.367893,0,0,-22.762507,9072.732293,3439.04584)">
<stop offset="0" style="stop-color:rgb(0.392157%,47.843137%,25.098039%);stop-opacity:1;"/>
<stop offset="0.2285" style="stop-color:rgb(1.568627%,52.54902%,26.27451%);stop-opacity:1;"/>
<stop offset="0.7433" style="stop-color:rgb(24.705882%,64.705882%,28.235294%);stop-opacity:1;"/>
<stop offset="1" style="stop-color:rgb(36.078431%,70.588235%,27.843137%);stop-opacity:1;"/>
</linearGradient>
<linearGradient id="linear2" gradientUnits="userSpaceOnUse" x1="-937.6974" y1="152.0808" x2="-935.2988" y2="152.0808" gradientTransform="matrix(2.962667,0,0,-1.836027,2797.4974,288.013213)">
<stop offset="0" style="stop-color:rgb(0.392157%,47.843137%,25.098039%);stop-opacity:1;"/>
<stop offset="0.2285" style="stop-color:rgb(1.568627%,52.54902%,26.27451%);stop-opacity:1;"/>
<stop offset="0.7433" style="stop-color:rgb(24.705882%,64.705882%,28.235294%);stop-opacity:1;"/>
<stop offset="1" style="stop-color:rgb(36.078431%,70.588235%,27.843137%);stop-opacity:1;"/>
</linearGradient>
<linearGradient id="linear3" gradientUnits="userSpaceOnUse" x1="-965.8787" y1="150.6445" x2="-965.1084" y2="150.6445" gradientTransform="matrix(9.367893,0,0,-22.74164,9051.742707,3435.895307)">
<stop offset="0" style="stop-color:rgb(16.862745%,17.647059%,42.745098%);stop-opacity:1;"/>
<stop offset="0.4751" style="stop-color:rgb(2.352941%,30.980392%,56.862745%);stop-opacity:1;"/>
<stop offset="0.8261" style="stop-color:rgb(3.921569%,40.392157%,68.627451%);stop-opacity:1;"/>
<stop offset="1" style="stop-color:rgb(6.27451%,43.921569%,71.764706%);stop-opacity:1;"/>
</linearGradient>
<linearGradient id="linear4" gradientUnits="userSpaceOnUse" x1="-966.1561" y1="150.6445" x2="-965.408" y2="150.6445" gradientTransform="matrix(9.367893,0,0,-22.783373,9062.258333,3442.19636)">
<stop offset="0" style="stop-color:rgb(42.745098%,17.647059%,18.431373%);stop-opacity:1;"/>
<stop offset="0.1735" style="stop-color:rgb(53.333333%,15.294118%,19.215686%);stop-opacity:1;"/>
<stop offset="0.5731" style="stop-color:rgb(74.117647%,12.54902%,20.392157%);stop-opacity:1;"/>
<stop offset="0.8585" style="stop-color:rgb(85.490196%,11.764706%,21.960784%);stop-opacity:1;"/>
<stop offset="1" style="stop-color:rgb(89.411765%,11.372549%,23.529412%);stop-opacity:1;"/>
</linearGradient>
</defs>
<g id="surface1">
<path style=" stroke:none;fill-rule:nonzero;fill:rgb(100%,100%,100%);fill-opacity:1;" d="M 27.933594 15.9375 C 27.933594 18.152344 26.128906 19.953125 23.917969 19.953125 L 2.0625 19.953125 L 2.0625 4.046875 C 2.0625 1.832031 3.867188 0.03125 6.078125 0.03125 L 27.933594 0.03125 Z M 27.933594 15.9375 "/>
<path style=" stroke:none;fill-rule:nonzero;fill:url(#linear0);" d="M 20.816406 11.855469 L 22.476562 11.855469 C 22.523438 11.855469 22.636719 11.839844 22.683594 11.839844 C 23 11.777344 23.269531 11.492188 23.269531 11.097656 C 23.269531 10.71875 23 10.433594 22.683594 10.355469 C 22.632812 10.339844 22.539062 10.339844 22.476562 10.339844 L 20.816406 10.339844 Z M 20.816406 11.855469 "/>
<path style=" stroke:none;fill-rule:nonzero;fill:url(#linear1);" d="M 22.289062 1.375 C 20.707031 1.375 19.410156 2.65625 19.410156 4.253906 L 19.410156 7.238281 L 23.472656 7.238281 C 23.566406 7.238281 23.679688 7.238281 23.757812 7.257812 C 24.675781 7.304688 25.355469 7.777344 25.355469 8.601562 C 25.355469 9.246094 24.894531 9.800781 24.042969 9.910156 L 24.042969 9.945312 C 24.976562 10.007812 25.6875 10.53125 25.6875 11.335938 C 25.6875 12.207031 24.894531 12.773438 23.851562 12.773438 L 19.390625 12.773438 L 19.390625 18.625 L 23.613281 18.625 C 25.195312 18.625 26.492188 17.34375 26.492188 15.746094 L 26.492188 1.375 Z M 22.289062 1.375 "/>
<path style=" stroke:none;fill-rule:nonzero;fill:url(#linear2);" d="M 23.0625 8.789062 C 23.0625 8.410156 22.792969 8.15625 22.476562 8.109375 C 22.445312 8.109375 22.367188 8.09375 22.320312 8.09375 L 20.816406 8.09375 L 20.816406 9.484375 L 22.320312 9.484375 C 22.367188 9.484375 22.460938 9.484375 22.476562 9.46875 C 22.792969 9.421875 23.0625 9.167969 23.0625 8.789062 Z M 23.0625 8.789062 "/>
<path style=" stroke:none;fill-rule:nonzero;fill:url(#linear3);" d="M 6.378906 1.375 C 4.796875 1.375 3.5 2.65625 3.5 4.253906 L 3.5 11.351562 C 4.308594 11.746094 5.144531 12 5.984375 12 C 6.980469 12 7.515625 11.398438 7.515625 10.578125 L 7.515625 7.222656 L 9.984375 7.222656 L 9.984375 10.558594 C 9.984375 11.855469 9.175781 12.914062 6.441406 12.914062 C 4.78125 12.914062 3.484375 12.550781 3.484375 12.550781 L 3.484375 18.609375 L 7.707031 18.609375 C 9.289062 18.609375 10.585938 17.328125 10.585938 15.730469 L 10.585938 1.375 Z M 6.378906 1.375 "/>
<path style=" stroke:none;fill-rule:nonzero;fill:url(#linear4);" d="M 14.332031 1.375 C 12.753906 1.375 11.453125 2.65625 11.453125 4.253906 L 11.453125 8.015625 C 12.183594 7.398438 13.445312 7.003906 15.488281 7.097656 C 16.578125 7.148438 17.746094 7.445312 17.746094 7.445312 L 17.746094 8.664062 C 17.164062 8.363281 16.464844 8.09375 15.566406 8.03125 C 14.015625 7.921875 13.082031 8.679688 13.082031 10.007812 C 13.082031 11.351562 14.015625 12.113281 15.566406 11.988281 C 16.464844 11.925781 17.164062 11.636719 17.746094 11.355469 L 17.746094 12.570312 C 17.746094 12.570312 16.59375 12.871094 15.488281 12.921875 C 13.445312 13.015625 12.179688 12.621094 11.453125 12.003906 L 11.453125 18.644531 L 15.675781 18.644531 C 17.257812 18.644531 18.554688 17.363281 18.554688 15.765625 L 18.554688 1.375 Z M 14.332031 1.375 "/>
</g>
</svg>
