<?xml version="1.0" encoding="UTF-8"?>
<svg xmlns="http://www.w3.org/2000/svg" xmlns:xlink="http://www.w3.org/1999/xlink" width="30px" height="px" viewBox="0 0 30 20" version="1.1">
<g id="surface1">
<path style=" stroke:none;fill-rule:nonzero;fill:rgb(0%,0%,0%);fill-opacity:1;" d="M 3 0 L 27 0 C 28.65625 0 30 1.34375 30 3 L 30 17 C 30 18.65625 28.65625 20 27 20 L 3 20 C 1.34375 20 0 18.65625 0 17 L 0 3 C 0 1.34375 1.34375 0 3 0 Z M 3 0 "/>
<path style=" stroke:none;fill-rule:nonzero;fill:rgb(96.862745%,61.960784%,10.588235%);fill-opacity:1;" d="M 26.640625 10.015625 C 26.636719 12.691406 25.109375 15.128906 22.703125 16.296875 C 20.296875 17.464844 17.433594 17.160156 15.332031 15.507812 C 18.367188 13.105469 18.882812 8.695312 16.484375 5.652344 C 16.148438 5.222656 15.761719 4.839844 15.332031 4.503906 C 17.4375 2.855469 20.300781 2.554688 22.707031 3.726562 C 25.113281 4.898438 26.636719 7.339844 26.640625 10.015625 Z M 26.640625 10.015625 "/>
<path style=" stroke:none;fill-rule:nonzero;fill:rgb(100%,37.254902%,0%);fill-opacity:1;" d="M 16.484375 5.65625 C 16.148438 5.226562 15.761719 4.839844 15.332031 4.503906 L 15.3125 4.503906 C 13.632812 5.832031 12.652344 7.855469 12.652344 9.996094 C 12.652344 12.136719 13.632812 14.164062 15.3125 15.488281 L 15.332031 15.488281 C 18.367188 13.09375 18.882812 8.691406 16.484375 5.65625 Z M 16.484375 5.65625 "/>
<path style=" stroke:none;fill-rule:nonzero;fill:rgb(92.156863%,0%,10.588235%);fill-opacity:1;" d="M 12.648438 10.015625 C 12.652344 7.867188 13.632812 5.839844 15.3125 4.503906 C 12.445312 2.269531 8.34375 2.613281 5.886719 5.289062 C 3.429688 7.964844 3.4375 12.078125 5.90625 14.746094 C 8.375 17.414062 12.476562 17.738281 15.335938 15.492188 C 13.636719 14.183594 12.644531 12.160156 12.648438 10.015625 Z M 12.648438 10.015625 "/>
</g>
</svg>
