<?xml version="1.0" encoding="UTF-8"?>
<svg xmlns="http://www.w3.org/2000/svg" xmlns:xlink="http://www.w3.org/1999/xlink" width="30px" height="px" viewBox="0 0 30 20" version="1.1">
<g id="surface1">
<path style=" stroke:none;fill-rule:nonzero;fill:rgb(98.823529%,98.823529%,98.823529%);fill-opacity:1;" d="M 3 0 L 27 0 C 28.65625 0 30 1.34375 30 3 L 30 17 C 30 18.65625 28.65625 20 27 20 L 3 20 C 1.34375 20 0 18.65625 0 17 L 0 3 C 0 1.34375 1.34375 0 3 0 Z M 3 0 "/>
<path style=" stroke:none;fill-rule:nonzero;fill:rgb(10.196078%,12.156863%,44.313725%);fill-opacity:1;" d="M 11.484375 6.140625 L 8.21875 13.941406 L 6.078125 13.941406 L 4.46875 7.699219 C 4.359375 7.308594 4.28125 7.183594 4 7.027344 C 3.367188 6.71875 2.695312 6.5 2 6.375 L 2.046875 6.15625 L 5.484375 6.15625 C 5.949219 6.152344 6.34375 6.496094 6.40625 6.957031 L 7.25 11.457031 L 9.34375 6.140625 Z M 19.859375 11.390625 C 19.859375 9.328125 17.015625 9.203125 17.046875 8.296875 C 17.046875 8.015625 17.3125 7.71875 17.90625 7.640625 C 18.589844 7.582031 19.28125 7.699219 19.90625 7.984375 L 20.25 6.34375 C 19.644531 6.113281 19.003906 5.996094 18.359375 6 C 16.359375 6 14.96875 7.0625 14.9375 8.578125 C 14.921875 9.699219 15.953125 10.328125 16.699219 10.699219 C 17.464844 11.074219 17.746094 11.339844 17.746094 11.667969 C 17.746094 12.183594 17.105469 12.433594 16.527344 12.433594 C 15.804688 12.449219 15.089844 12.277344 14.449219 11.933594 L 14.074219 13.636719 C 14.789062 13.917969 15.554688 14.054688 16.324219 14.039062 C 18.449219 14.058594 19.839844 13.011719 19.855469 11.386719 M 25.121094 13.933594 L 27 13.933594 L 25.375 6.140625 L 23.640625 6.140625 C 23.261719 6.136719 22.921875 6.367188 22.78125 6.71875 L 19.734375 13.9375 L 21.859375 13.9375 L 22.265625 12.765625 L 24.859375 12.765625 Z M 22.855469 11.183594 L 23.917969 8.261719 L 24.542969 11.183594 Z M 14.359375 6.140625 L 12.699219 13.9375 L 10.6875 13.9375 L 12.34375 6.136719 Z M 14.359375 6.140625 "/>
</g>
</svg>
