<svg width="50" height="50" viewBox="0 0 50 50" fill="none" xmlns="http://www.w3.org/2000/svg">
<path d="M14.2731 10.1099C15.8794 10.1099 17.182 8.84325 17.182 7.28056V2.82851C17.182 1.2666 15.8794 0 14.2731 0C12.6659 0 11.3633 1.2666 11.3633 2.82851V7.28056C11.3633 8.84335 12.6659 10.1099 14.2731 10.1099Z" fill="#FFFCFC"/>
<path d="M35.7276 10.1099C37.3339 10.1099 38.6364 8.84325 38.6364 7.28056V2.82851C38.6365 1.2666 37.334 0 35.7276 0C34.1204 0 32.8179 1.2666 32.8179 2.82851V7.28056C32.8179 8.84335 34.1205 10.1099 35.7276 10.1099Z" fill="#FFFCFC"/>
<path d="M42.9936 4.03198H41.1934V7.28061C41.1934 10.212 38.7414 12.5961 35.7276 12.5961C32.713 12.5961 30.2611 10.212 30.2611 7.28061V4.03198H19.7389V7.28061C19.7389 10.212 17.287 12.5961 14.2733 12.5961C11.2585 12.5961 8.8066 10.212 8.8066 7.28061V4.03198H7.00637C3.13696 4.03198 0 7.08227 0 10.8448V43.1872C0 46.9497 3.13696 50 7.00637 50H42.9936C46.863 50 50 46.9497 50 43.1872V10.8448C50 7.08227 46.8629 4.03198 42.9936 4.03198ZM46.5909 43.1872C46.5909 45.1157 44.9769 46.6851 42.9936 46.6851H7.00637C5.02296 46.6851 3.40913 45.1157 3.40913 43.1872V15.1502H46.5909V43.1872Z" fill="#FFFCFC"/>
<path d="M23.434 36.8721H17.7368V42.4118H23.434V36.8721Z" fill="#FFFCFC"/>
<path d="M23.434 28.2861H17.7368V33.8259H23.434V28.2861Z" fill="#FFFCFC"/>
<path d="M14.6035 36.8721H8.90723V42.4118H14.6035V36.8721Z" fill="#FFFCFC"/>
<path d="M14.6035 28.2861H8.90723V33.8259H14.6035V28.2861Z" fill="#FFFCFC"/>
<path d="M41.0927 19.7002H35.3965V25.2399H41.0927V19.7002Z" fill="#FFFCFC"/>
<path d="M32.2644 19.7002H26.5664V25.2399H32.2644V19.7002Z" fill="#FFFCFC"/>
<path d="M32.2644 28.2861H26.5664V33.8259H32.2644V28.2861Z" fill="#FFFCFC"/>
<path d="M41.0927 36.8721H35.3965V42.4118H41.0927V36.8721Z" fill="#FFFCFC"/>
<path d="M41.0927 28.2861H35.3965V33.8259H41.0927V28.2861Z" fill="#FFFCFC"/>
<path d="M32.2644 36.8721H26.5664V42.4118H32.2644V36.8721Z" fill="#FFFCFC"/>
<path d="M23.434 19.7002H17.7368V25.2399H23.434V19.7002Z" fill="#FFFCFC"/>
<path d="M14.6035 19.7002H8.90723V25.2399H14.6035V19.7002Z" fill="#FFFCFC"/>
</svg>
