<svg width="52" height="40" viewBox="0 0 52 40" fill="none" xmlns="http://www.w3.org/2000/svg">
<path d="M46.8985 0H4.2635C1.90969 0 0 1.91964 0 4.28571V35.7143C0 38.0804 1.90969 40 4.2635 40H46.8985C49.2523 40 51.162 38.0804 51.162 35.7143V4.28571C51.162 1.91964 49.2523 0 46.8985 0ZM46.8985 35.7143H4.2635V4.28571H46.8985V35.7143ZM18.4752 20C21.6106 20 24.1598 17.4375 24.1598 14.2857C24.1598 11.1339 21.6106 8.57143 18.4752 8.57143C15.3397 8.57143 12.7905 11.1339 12.7905 14.2857C12.7905 17.4375 15.3397 20 18.4752 20ZM10.5166 31.4286H26.4337C27.5351 31.4286 28.4233 30.6607 28.4233 29.7143V28C28.4233 25.1607 25.7498 22.8571 22.4544 22.8571C21.4951 22.8571 20.7934 23.5714 18.4752 23.5714C16.0858 23.5714 15.5085 22.8571 14.4959 22.8571C11.2006 22.8571 8.527 25.1607 8.527 28V29.7143C8.527 30.6607 9.41523 31.4286 10.5166 31.4286ZM31.9762 25.7143H41.9244C42.3152 25.7143 42.635 25.3929 42.635 25V23.5714C42.635 23.1786 42.3152 22.8571 41.9244 22.8571H31.9762C31.5854 22.8571 31.2657 23.1786 31.2657 23.5714V25C31.2657 25.3929 31.5854 25.7143 31.9762 25.7143ZM31.9762 20H41.9244C42.3152 20 42.635 19.6786 42.635 19.2857V17.8571C42.635 17.4643 42.3152 17.1429 41.9244 17.1429H31.9762C31.5854 17.1429 31.2657 17.4643 31.2657 17.8571V19.2857C31.2657 19.6786 31.5854 20 31.9762 20ZM31.9762 14.2857H41.9244C42.3152 14.2857 42.635 13.9643 42.635 13.5714V12.1429C42.635 11.75 42.3152 11.4286 41.9244 11.4286H31.9762C31.5854 11.4286 31.2657 11.75 31.2657 12.1429V13.5714C31.2657 13.9643 31.5854 14.2857 31.9762 14.2857Z" fill="#FFFCFC"/>
</svg>
