<svg width="40" height="50" viewBox="0 0 40 50" fill="none" xmlns="http://www.w3.org/2000/svg">
<path d="M10.0015 21.9297H30.0015V23.684H10.0015V21.9297Z" fill="white"/>
<path d="M10.0015 28.9468H30.0015V30.7011H10.0015V28.9468Z" fill="white"/>
<path d="M10.0015 35.9658H23.3348V37.7201H10.0015V35.9658Z" fill="white"/>
<path d="M24.9269 4.38658C24.5297 1.89812 22.4786 0 20.0016 0C17.5246 0 15.4735 1.89812 15.0763 4.38658H0V50H40V4.38658H24.9269ZM16.6683 8.41361V5.26289C16.6683 3.32798 18.1633 1.7543 20.0016 1.7543C21.8398 1.7543 23.3349 3.32798 23.3349 5.26289V8.41361L24.1786 8.91866C25.8151 9.89866 27.0702 11.3887 27.79 13.1581H12.2148C12.9345 11.3887 14.1897 9.89866 15.8262 8.91866L16.6683 8.41361ZM38.3365 48.2457H1.66984V6.14088H15.0032V7.39347C12.4007 8.9521 10.5164 11.6847 10.0032 14.9124H30.0032C29.4916 11.6847 27.6057 8.95378 25.0032 7.39347V6.14088H38.3365V48.2457Z" fill="white"/>
</svg>
