<svg width="45" height="35" viewBox="0 0 45 35" fill="none" xmlns="http://www.w3.org/2000/svg">
<path d="M44.3772 19.0483L29.3765 34.3582C28.0371 35.7252 25.7156 34.7683 25.7156 32.809V24.0604H13.5721C12.3845 24.0604 11.4291 23.0853 11.4291 21.8733V13.1248C11.4291 11.9127 12.3845 10.9376 13.5721 10.9376H25.7156V2.18907C25.7156 0.238878 28.0282 -0.727107 29.3765 0.639853L44.3772 15.9498C45.2076 16.8064 45.2076 18.1916 44.3772 19.0483ZM17.1437 33.9026V30.2573C17.1437 29.6559 16.6615 29.1638 16.0722 29.1638H8.57185C6.99142 29.1638 5.71457 27.8606 5.71457 26.2476V8.75049C5.71457 7.13747 6.99142 5.8343 8.57185 5.8343H16.0722C16.6615 5.8343 17.1437 5.3422 17.1437 4.74073V1.09551C17.1437 0.494044 16.6615 0.00193822 16.0722 0.00193822H8.57185C3.83948 0.00193822 0 3.92056 0 8.75049V26.2476C0 31.0775 3.83948 34.9961 8.57185 34.9961H16.0722C16.6615 34.9961 17.1437 34.504 17.1437 33.9026Z" fill="white"/>
</svg>
