<svg width="50" height="40" viewBox="0 0 50 40" fill="none" xmlns="http://www.w3.org/2000/svg">
<path d="M38.9017 17.6516L22.3484 1.09836C21.6451 0.395097 20.6913 5.2006e-06 19.6967 0L3.75 0C1.67891 0 0 1.67891 0 3.75V19.6967C5.2006e-06 20.6913 0.395097 21.6451 1.09836 22.3484L17.6516 38.9017C19.116 40.3661 21.4904 40.3662 22.9549 38.9017L38.9017 22.9549C40.3661 21.4905 40.3661 19.1161 38.9017 17.6516ZM8.75 12.5C6.67891 12.5 5 10.8211 5 8.75C5 6.67891 6.67891 5 8.75 5C10.8211 5 12.5 6.67891 12.5 8.75C12.5 10.8211 10.8211 12.5 8.75 12.5ZM48.9017 22.9549L32.9549 38.9017C31.4905 40.3661 29.1161 40.3661 27.6517 38.9017L27.6235 38.8735L41.2219 25.2752C42.5499 23.9471 43.2813 22.1814 43.2813 20.3033C43.2813 18.4252 42.5499 16.6595 41.2219 15.3314L25.8904 0H29.6967C30.6913 5.2006e-06 31.6451 0.395097 32.3484 1.09836L48.9017 17.6516C50.3661 19.1161 50.3661 21.4905 48.9017 22.9549Z" fill="white"/>
</svg>
