<svg width="50" height="40" viewBox="0 0 50 40" fill="none" xmlns="http://www.w3.org/2000/svg">
<path d="M39.375 27.4981H10.6562C10.3125 27.4981 10.0312 27.7793 10.0312 28.1231L10.0234 31.8731C10.0234 32.2168 10.3047 32.4981 10.6484 32.4981H39.375C39.7188 32.4981 40 32.2168 40 31.8731V28.1231C40 27.7793 39.7188 27.4981 39.375 27.4981ZM39.375 34.9981H10.6328C10.2891 34.9981 10.0078 35.2793 10.0078 35.6231L10 39.3731C10 39.7168 10.2812 39.9981 10.625 39.9981H39.375C39.7188 39.9981 40 39.7168 40 39.3731V35.6231C40 35.2793 39.7188 34.9981 39.375 34.9981ZM39.375 19.9981H10.6719C10.3281 19.9981 10.0469 20.2793 10.0469 20.6231L10.0391 24.3731C10.0391 24.7168 10.3203 24.9981 10.6641 24.9981H39.375C39.7188 24.9981 40 24.7168 40 24.3731V20.6231C40 20.2793 39.7188 19.9981 39.375 19.9981ZM47.6953 9.13868L26.4375 0.287114C25.9806 0.0975667 25.4908 0 24.9961 0C24.5014 0 24.0116 0.0975667 23.5547 0.287114L2.30469 9.13868C0.914063 9.72461 0 11.084 0 12.5996V39.3731C0 39.7168 0.28125 39.9981 0.625 39.9981H6.875C7.21875 39.9981 7.5 39.7168 7.5 39.3731V19.9981C7.5 18.6231 8.64062 17.4981 10.0469 17.4981H39.9531C41.3594 17.4981 42.5 18.6231 42.5 19.9981V39.3731C42.5 39.7168 42.7812 39.9981 43.125 39.9981H49.375C49.7188 39.9981 50 39.7168 50 39.3731V12.5996C50 11.084 49.0859 9.72461 47.6953 9.13868Z" fill="white"/>
</svg>
